<?xml version="1.0" standalone="no"?>
<!DOCTYPE svg PUBLIC "-//W3C//DTD SVG 20010904//EN"
 "http://www.w3.org/TR/2001/REC-SVG-20010904/DTD/svg10.dtd">
<svg version="1.0" xmlns="http://www.w3.org/2000/svg"
 width="362.000000pt" height="362.000000pt" viewBox="0 0 362.000000 362.000000"
 preserveAspectRatio="xMidYMid meet">
<metadata>
Created by potrace 1.11, written by Peter Selinger 2001-2013
</metadata>
<g transform="translate(0.000000,362.000000) scale(0.100000,-0.100000)"
fill="#000000" stroke="none">
<path d="M2004 3600 c-50 -10 -127 -28 -170 -40 -43 -12 -106 -23 -139 -25
-87 -3 -307 -60 -389 -100 -166 -80 -379 -216 -621 -395 -141 -104 -166 -127
-225 -201 -46 -58 -84 -153 -75 -187 3 -14 42 -60 87 -104 89 -88 85 -79 90
-243 1 -49 4 -80 6 -67 2 12 7 20 10 18 7 -4 6 89 -1 172 -2 17 -1 32 3 33 69
6 103 16 143 40 55 33 60 34 76 15 16 -19 129 -26 135 -9 3 7 18 18 33 26 40
21 114 35 278 53 l59 7 -18 -29 c-20 -31 -158 -214 -187 -249 -109 -128 -132
-174 -135 -263 -3 -72 7 -105 40 -144 76 -86 193 -72 256 33 14 23 30 40 35
38 20 -8 8 -143 -19 -218 -9 -24 -16 -44 -16 -45 0 0 27 -2 60 -3 33 -2 60 1
60 5 0 4 -7 29 -15 56 -18 59 -29 146 -26 199 1 15 4 16 21 7 11 -6 18 -15 16
-19 -3 -4 4 -17 14 -29 11 -12 20 -25 20 -30 0 -4 17 -18 39 -30 67 -38 132
-26 188 33 18 19 35 45 37 57 22 101 6 173 -62 267 -25 36 -53 72 -62 81 -9 9
-45 54 -80 101 -35 46 -68 86 -72 87 -4 2 -8 9 -8 16 0 7 -11 27 -25 46 -14
18 -24 35 -22 36 1 1 20 5 42 8 36 6 71 12 129 22 10 2 60 16 110 30 73 22
111 28 196 28 93 0 122 -5 250 -41 130 -36 163 -42 300 -49 307 -15 413 -11
545 20 66 15 128 30 139 32 36 7 123 34 160 49 l38 16 -28 31 c-16 17 -76 71
-134 121 -93 80 -150 148 -150 179 0 16 119 161 148 180 79 52 64 167 -34 251
-21 17 -227 101 -294 118 -19 5 -44 12 -55 15 -11 3 -153 7 -315 9 -256 3
-307 1 -386 -15z"/>
<path d="M2202 2480 c-44 -10 -101 -57 -123 -101 -17 -33 -31 -124 -20 -134 2
-3 6 -14 8 -25 8 -55 79 -158 226 -330 12 -14 40 -48 61 -75 67 -84 83 -98 93
-81 4 8 22 29 38 48 17 18 37 43 45 54 8 12 36 45 61 75 192 223 213 259 216
369 2 71 0 78 -31 121 -61 83 -167 108 -244 56 -31 -21 -82 -93 -86 -123 -4
-25 -14 -26 -21 -2 -13 41 -57 104 -89 126 -36 24 -88 33 -134 22z"/>
<path d="M583 2170 c0 -36 2 -50 4 -32 2 17 2 47 0 65 -2 17 -4 3 -4 -33z"/>
<path d="M592 2015 c0 -16 2 -22 5 -12 2 9 2 23 0 30 -3 6 -5 -1 -5 -18z"/>
<path d="M592 1960 c0 -14 2 -19 5 -12 2 6 2 18 0 25 -3 6 -5 1 -5 -13z"/>
<path d="M596 1815 c0 -53 -3 -92 -8 -89 -13 8 -57 -44 -80 -95 -19 -42 -27
-139 -13 -162 6 -9 -21 -93 -36 -114 -4 -6 -11 -40 -14 -75 -11 -126 -15 -163
-20 -170 -2 -4 -6 -20 -9 -36 -41 -242 -20 -417 71 -584 45 -83 187 -223 269
-266 32 -18 99 -54 148 -82 149 -85 314 -127 520 -133 314 -8 399 -5 461 18
33 12 75 24 93 28 17 4 32 10 32 15 0 5 10 10 23 12 12 2 21 9 19 16 -1 7 11
15 28 19 17 3 33 9 35 14 3 4 -8 4 -25 -1 -31 -9 -43 3 -13 14 14 6 12 11 -11
35 -20 21 -24 30 -14 34 8 3 5 6 -8 6 -11 1 -28 7 -38 14 -14 10 -15 17 -6 41
10 27 9 28 -6 15 -16 -13 -17 -11 -11 16 3 17 9 39 12 50 l7 20 -13 -20 c-18
-30 -19 -31 -30 -15 -7 13 -10 13 -18 1 -6 -9 -11 -10 -15 -2 -4 6 -2 11 4 11
7 0 8 6 1 19 -13 23 -3 35 16 19 11 -9 17 -9 23 3 6 8 6 15 0 17 -6 2 -10 11
-9 20 0 11 2 12 6 4 5 -13 23 -7 23 8 0 8 -46 60 -53 60 -1 0 -17 -4 -35 -9
-20 -6 -32 -6 -32 0 0 5 -6 9 -13 9 -7 0 -22 6 -32 14 -17 12 -18 16 -5 32 14
16 13 16 -7 5 -13 -6 -23 -9 -23 -5 0 4 -9 -3 -20 -16 -11 -13 -20 -17 -20
-10 0 10 -4 10 -17 -1 -15 -11 -16 -11 -5 1 6 8 12 17 12 21 0 4 -60 7 -132 7
-121 0 -218 6 -258 17 -8 2 -30 7 -49 10 -99 17 -209 73 -276 141 -83 84 -123
202 -130 389 -3 66 -10 136 -16 155 -23 73 -62 148 -79 153 -20 5 -31 48 -17
72 24 44 -5 164 -51 208 -15 15 -45 33 -66 40 -42 14 -44 18 -50 107 -5 72 -5
70 -13 70 -5 0 -8 -43 -7 -95z m1199 -1295 c-3 -5 -11 -10 -16 -10 -6 0 -7 5
-4 10 3 6 11 10 16 10 6 0 7 -4 4 -10z m162 -57 c2 -6 -7 -10 -22 -9 -24 1
-31 7 -19 18 9 9 38 2 41 -9z m107 -292 c23 -25 15 -27 -19 -5 -29 19 -44 50
-17 35 9 -5 26 -19 36 -30z"/>
<path d="M1259 1448 c-34 -45 -69 -90 -76 -98 -46 -51 -203 -263 -203 -274 0
-7 12 -29 28 -48 15 -19 38 -50 52 -68 43 -57 174 -225 202 -261 15 -19 34
-43 43 -54 15 -20 15 -20 41 10 38 43 50 59 139 175 98 129 86 114 140 182 25
31 45 60 45 65 0 4 -14 24 -30 43 -16 19 -30 38 -30 41 0 3 -10 17 -22 31 -32
36 -50 58 -78 98 -13 19 -27 37 -30 40 -3 3 -37 46 -74 95 -38 50 -72 94 -76
98 -4 5 -36 -29 -71 -75z"/>
<path d="M2364 1518 c-84 -68 -100 -86 -111 -131 -17 -69 12 -171 65 -229 l24
-26 -68 3 c-158 7 -258 -75 -249 -206 4 -75 60 -155 124 -177 25 -9 106 -9
142 0 32 8 81 54 110 103 l29 50 -5 -65 c-7 -97 -13 -132 -30 -173 -8 -20 -15
-38 -15 -40 0 -1 27 -3 60 -3 65 0 69 4 45 49 -18 35 -39 231 -23 221 4 -3 8
-11 8 -17 0 -21 72 -98 109 -116 127 -64 287 37 284 178 -1 25 -6 58 -12 72
-18 48 -69 96 -115 110 -25 7 -42 17 -40 21 3 4 -5 4 -18 0 -13 -4 -39 -7 -58
-7 -19 1 -46 -2 -60 -7 -21 -7 -22 -6 -10 4 9 7 27 31 40 53 13 22 29 43 34
47 6 4 8 8 4 8 -4 0 -1 15 6 33 35 85 -21 204 -114 243 -35 15 -138 16 -156 2z"/>
</g>
</svg>
