<?xml version="1.0" standalone="no"?>
<!DOCTYPE svg PUBLIC "-//W3C//DTD SVG 20010904//EN"
 "http://www.w3.org/TR/2001/REC-SVG-20010904/DTD/svg10.dtd">
<svg version="1.0" xmlns="http://www.w3.org/2000/svg"
 width="249.000000pt" height="249.000000pt" viewBox="0 0 249.000000 249.000000"
 preserveAspectRatio="xMidYMid meet">
<metadata>
Created by potrace 1.11, written by Peter Selinger 2001-2013
</metadata>
<g transform="translate(0.000000,249.000000) scale(0.100000,-0.100000)"
fill="#000000" stroke="none">
<path d="M606 2181 c-25 -37 -95 -131 -156 -207 -134 -170 -154 -206 -158
-299 -2 -58 1 -77 20 -110 33 -55 80 -85 137 -85 60 0 102 26 136 84 41 70 58
62 50 -21 -6 -60 -24 -142 -41 -188 -5 -12 4 -15 56 -15 55 0 61 2 55 18 -30
79 -48 252 -26 252 5 0 23 -21 39 -48 38 -58 77 -82 135 -82 49 0 96 26 131
73 17 23 21 43 21 110 0 103 -15 135 -130 277 -47 58 -117 151 -155 207 l-69
102 -45 -68z"/>
<path d="M1476 2235 c-21 -7 -59 -33 -83 -57 -80 -79 -91 -196 -29 -323 25
-49 390 -505 405 -505 15 0 366 430 398 488 88 158 56 315 -78 385 -46 25 -62
28 -108 24 -92 -10 -157 -69 -194 -178 -13 -37 -17 -41 -23 -24 -48 136 -125
206 -224 205 -14 -1 -43 -7 -64 -15z"/>
<path d="M1705 1146 c-83 -31 -145 -133 -130 -215 8 -41 37 -103 70 -147 l24
-31 -48 10 c-81 16 -153 -5 -211 -61 -40 -39 -49 -55 -55 -94 -4 -27 -4 -64
-1 -83 9 -45 61 -113 106 -136 47 -25 122 -24 177 2 38 18 54 36 110 117 23
34 -4 -168 -32 -240 -6 -16 0 -18 55 -18 55 0 61 2 55 17 -25 59 -52 244 -35
242 3 0 19 -21 35 -47 80 -124 260 -123 336 2 25 41 33 86 24 142 -5 36 -16
56 -53 94 -40 41 -56 50 -106 60 -40 8 -74 9 -106 3 l-47 -10 32 43 c94 123
81 266 -31 334 -43 27 -118 34 -169 16z"/>
<path d="M481 937 c-90 -116 -166 -219 -168 -228 -4 -15 322 -449 337 -449 4
0 85 100 179 221 l171 222 -28 37 c-103 138 -316 410 -321 410 -3 0 -80 -96
-170 -213z"/>
</g>
</svg>
